<svg width="195" height="156" viewBox="0 0 195 156" fill="none" xmlns="http://www.w3.org/2000/svg">
<path d="M7.03232 5C12.3123 5 17.5923 5 23.0323 5C23.0323 5.99 23.0323 6.98 23.0323 8C24.0223 8 25.0123 8 26.0323 8C26.0323 10.97 26.0323 13.94 26.0323 17C27.3523 17 28.6723 17 30.0323 17C30.0323 19.97 30.0323 22.94 30.0323 26C38.9423 26 47.8523 26 57.0323 26C57.0323 22.7 57.0323 19.4 57.0323 16C59.0123 16 60.9923 16 63.0323 16C63.0323 13.36 63.0323 10.72 63.0323 8C67.1229 6.85002 71.0651 6.88944 75.2823 6.9375C79.1186 6.96844 79.1186 6.96844 83.0323 7C83.0323 15.91 83.0323 24.82 83.0323 34C85.3423 34 87.6523 34 90.0323 34C90.0323 46.87 90.0323 59.74 90.0323 73C86.4023 73 82.7723 73 79.0323 73C78.7023 73.33 78.3723 73.66 78.0323 74C80.0123 74.495 80.0123 74.495 82.0323 75C82.0323 76.98 82.0323 78.96 82.0323 81C79.7223 81 77.4123 81 75.0323 81C75.0323 83.31 75.0323 85.62 75.0323 88C72.7223 88 70.4123 88 68.0323 88C68.0323 90.31 68.0323 92.62 68.0323 95C70.3423 95 72.6523 95 75.0323 95C75.0323 93.02 75.0323 91.04 75.0323 89C77.3423 89 79.6523 89 82.0323 89C82.0323 90.98 82.0323 92.96 82.0323 95C82.6923 95 83.3523 95 84.0323 95C84.0323 99.95 84.0323 104.9 84.0323 110C86.3423 110 88.6523 110 91.0323 110C91.0323 102.74 91.0323 95.48 91.0323 88C93.6723 88 96.3123 88 99.0323 88C99.0323 92.95 99.0323 97.9 99.0323 103C102.002 103 104.972 103 108.032 103C107.867 101.948 107.702 100.896 107.532 99.8125C106.775 93.8942 106.951 87.9548 107.032 82C109.342 82 111.652 82 114.032 82C114.032 88.93 114.032 95.86 114.032 103C117.002 103 119.972 103 123.032 103C123.032 96.07 123.032 89.14 123.032 82C125.342 82 127.652 82 130.032 82C131.137 86.417 131.183 90.4736 131.032 95C130.702 95.33 130.372 95.66 130.032 96C129.665 98.3282 129.33 100.662 129.032 103C132.497 102.505 132.497 102.505 136.032 102C136.362 100.02 136.692 98.04 137.032 96C138.022 96 139.012 96 140.032 96C140.001 94.3294 140.001 94.3294 139.97 92.625C140.032 89 140.032 89 141.032 87C142.352 87 143.672 87 145.032 87C145.032 89.97 145.032 92.94 145.032 96C147.012 96 148.992 96 151.032 96C151.032 93.69 151.032 91.38 151.032 89C155.652 88.67 160.272 88.34 165.032 88C165.362 82.72 165.692 77.44 166.032 72C168.342 72 170.652 72 173.032 72C173.032 74.64 173.032 77.28 173.032 80C175.012 80 176.992 80 179.032 80C179.362 82.64 179.692 85.28 180.032 88C177.722 88 175.412 88 173.032 88C173.032 90.97 173.032 93.94 173.032 97C170.722 97 168.412 97 166.032 97C166.032 98.98 166.032 100.96 166.032 103C161.082 103 156.132 103 151.032 103C151.032 105.31 151.032 107.62 151.032 110C148.392 110 145.752 110 143.032 110C143.032 112.64 143.032 115.28 143.032 118C145.342 118 147.652 118 150.032 118C150.032 130.54 150.032 143.08 150.032 156C145.412 156 140.792 156 136.032 156C136.032 151.05 136.032 146.1 136.032 141C134.052 141 132.072 141 130.032 141C130.032 138.69 130.032 136.38 130.032 134C111.882 134 93.7323 134 75.0323 134C75.0323 128.72 75.0323 123.44 75.0323 118C72.3923 118 69.7523 118 67.0323 118C67.0323 130.54 67.0323 143.08 67.0323 156C61.7523 156 56.4723 156 51.0323 156C51.0323 145.77 51.0323 135.54 51.0323 125C46.4123 125 41.7923 125 37.0323 125C37.0323 135.23 37.0323 145.46 37.0323 156C32.0823 156 27.1323 156 22.0323 156C22.0323 135.87 22.0323 115.74 22.0323 95C26.6523 95 31.2723 95 36.0323 95C36.0323 92.36 36.0323 89.72 36.0323 87C29.1023 87 22.1723 87 15.0323 87C15.0323 83.37 15.0323 79.74 15.0323 76C12.3923 76 9.75232 76 7.03232 76C5.90736 72.4192 5.94736 69.1329 6.01059 65.3955C6.0202 64.7414 6.0298 64.0874 6.0397 63.4135C6.07258 61.2599 6.11296 59.1066 6.15341 56.9531C6.17772 55.4567 6.20157 53.9603 6.22496 52.4638C6.28769 48.5313 6.35679 44.599 6.42722 40.6667C6.498 36.6516 6.56275 32.6363 6.62802 28.6211C6.75689 20.7473 6.89305 12.8736 7.03232 5Z" fill="#D49243"/>
<path d="M174.031 45C178.321 45 182.611 45 187.031 45C187.031 47.31 187.031 49.62 187.031 52C189.341 52 191.651 52 194.031 52C194.031 59.92 194.031 67.84 194.031 76C191.721 76 189.411 76 187.031 76C187.031 80.29 187.031 84.58 187.031 89C185.051 89 183.071 89 181.031 89C181.031 91.31 181.031 93.62 181.031 96C178.721 96 176.411 96 174.031 96C174.031 98.31 174.031 100.62 174.031 103C172.051 103 170.071 103 168.031 103C168.031 105.31 168.031 107.62 168.031 110C164.401 110 160.771 110 157.031 110C157.031 123.2 157.031 136.4 157.031 150C156.371 150 155.711 150 155.031 150C154.701 151.65 154.371 153.3 154.031 155C153.041 155 152.051 155 151.031 155C151.031 137.84 151.031 120.68 151.031 103C155.981 103 160.931 103 166.031 103C166.031 101.02 166.031 99.04 166.031 97C168.341 97 170.651 97 173.031 97C173.031 94.03 173.031 91.06 173.031 88C175.011 87.67 176.991 87.34 179.031 87C178.536 84.03 178.536 84.03 178.031 81C176.381 80.67 174.731 80.34 173.031 80C173.031 77.36 173.031 74.72 173.031 72C170.721 72 168.411 72 166.031 72C165.701 77.28 165.371 82.56 165.031 88C160.007 88.8373 156.031 89.0862 151.031 89C151.031 91.31 151.031 93.62 151.031 96C149.051 96 147.071 96 145.031 96C145.031 93.03 145.031 90.06 145.031 87C143.711 87 142.391 87 141.031 87C140.701 89.97 140.371 92.94 140.031 96C139.041 96 138.051 96 137.031 96C137.052 96.9694 137.072 97.9388 137.094 98.9375C137.031 102 137.031 102 136.031 103C133.698 103.041 131.364 103.042 129.031 103C128.989 100.667 128.99 98.333 129.031 96C129.361 95.67 129.691 95.34 130.031 95C130.104 92.8136 130.115 90.625 130.094 88.4375C130.085 87.24 130.076 86.0424 130.066 84.8086C130.055 83.8818 130.043 82.9549 130.031 82C127.721 82 125.411 82 123.031 82C123.031 88.93 123.031 95.86 123.031 103C120.061 103 117.091 103 114.031 103C114.031 96.07 114.031 89.14 114.031 82C111.721 82 109.411 82 107.031 82C107.361 88.93 107.691 95.86 108.031 103C105.061 103 102.091 103 99.0312 103C99.0312 98.05 99.0312 93.1 99.0312 88C96.3912 88 93.7513 88 91.0312 88C91.0312 95.26 91.0312 102.52 91.0312 110C88.7213 110 86.4113 110 84.0312 110C84.0312 105.05 84.0312 100.1 84.0312 95C83.3712 95 82.7113 95 82.0312 95C82.0312 93.02 82.0312 91.04 82.0312 89C79.7213 89 77.4113 89 75.0312 89C75.0312 90.98 75.0312 92.96 75.0312 95C72.7213 95 70.4113 95 68.0312 95C68.0312 92.69 68.0312 90.38 68.0312 88C70.3412 88 72.6512 88 75.0312 88C75.0312 85.69 75.0312 83.38 75.0312 81C77.3412 81 79.6512 81 82.0312 81C82.0312 79.02 82.0312 77.04 82.0312 75C80.3813 75 78.7313 75 77.0312 75C77.6913 74.01 78.3512 73.02 79.0312 72C81.7014 71.6772 81.7014 71.6772 85.1333 71.7512C86.4145 71.7715 87.6957 71.7917 89.0157 71.8126C90.4193 71.85 91.8229 71.8877 93.2266 71.9258C94.6586 71.9538 96.0906 71.9805 97.5227 72.0059C101.294 72.0764 105.065 72.1651 108.837 72.2576C112.684 72.3487 116.531 72.4226 120.379 72.498C127.93 72.6486 135.481 72.8183 143.031 73C143.031 75.64 143.031 78.28 143.031 81C145.341 81 147.651 81 150.031 81C150.031 81.66 150.031 82.32 150.031 83C152.671 83 155.311 83 158.031 83C158.02 82.2175 158.008 81.4351 157.996 80.6289C157.987 79.617 157.978 78.6051 157.969 77.5625C157.957 76.5532 157.946 75.5438 157.934 74.5039C158.031 72 158.031 72 159.031 71C161.011 71 162.991 71 165.031 71C165.031 64.73 165.031 58.46 165.031 52C168.001 52 170.971 52 174.031 52C174.031 49.69 174.031 47.38 174.031 45Z" fill="#A56D33"/>
<path d="M44.0312 96C54.2612 96 64.4913 96 75.0312 96C75.0312 100.95 75.0312 105.9 75.0312 111C72.7213 111 70.4113 111 68.0312 111C67.7012 125.85 67.3713 140.7 67.0312 156C61.7512 156 56.4713 156 51.0312 156C51.0312 145.77 51.0312 135.54 51.0312 125C46.4113 125 41.7913 125 37.0312 125C37.0312 122.69 37.0312 120.38 37.0312 118C34.3912 118 31.7513 118 29.0312 118C29.0312 115.69 29.0312 113.38 29.0312 111C27.0512 111 25.0712 111 23.0312 111C23.0312 108.36 23.0312 105.72 23.0312 103C29.9612 103 36.8913 103 44.0312 103C44.0312 100.69 44.0312 98.38 44.0312 96Z" fill="#DEB473"/>
<path d="M79.0312 72C81.7014 71.6772 81.7014 71.6772 85.1333 71.7512C86.4145 71.7715 87.6957 71.7917 89.0157 71.8126C90.4193 71.85 91.8229 71.8877 93.2266 71.9258C94.6586 71.9538 96.0906 71.9805 97.5227 72.0059C101.294 72.0764 105.065 72.1651 108.837 72.2576C112.684 72.3487 116.531 72.4227 120.379 72.4981C127.93 72.6486 135.481 72.8199 143.031 73C143.031 77.62 143.031 82.24 143.031 87C142.371 87 141.711 87 141.031 87C140.701 89.97 140.371 92.94 140.031 96C139.041 96 138.051 96 137.031 96C137.052 96.9694 137.072 97.9388 137.094 98.9375C137.031 102 137.031 102 136.031 103C133.698 103.041 131.364 103.042 129.031 103C128.989 100.667 128.99 98.333 129.031 96C129.526 95.505 129.526 95.505 130.031 95C130.104 92.8136 130.115 90.625 130.094 88.4375C130.085 87.24 130.076 86.0424 130.066 84.8086C130.055 83.8818 130.043 82.9549 130.031 82C127.721 82 125.411 82 123.031 82C123.031 88.93 123.031 95.86 123.031 103C120.061 103 117.091 103 114.031 103C114.031 96.07 114.031 89.14 114.031 82C111.721 82 109.411 82 107.031 82C107.361 88.93 107.691 95.86 108.031 103C105.061 103 102.091 103 99.0312 103C99.0312 98.05 99.0312 93.1 99.0312 88C96.3912 88 93.7513 88 91.0312 88C91.0312 95.26 91.0312 102.52 91.0312 110C88.7213 110 86.4113 110 84.0312 110C84.0312 105.05 84.0312 100.1 84.0312 95C83.3712 95 82.7113 95 82.0312 95C82.0312 93.02 82.0312 91.04 82.0312 89C79.7213 89 77.4113 89 75.0312 89C75.0312 90.98 75.0312 92.96 75.0312 95C72.7213 95 70.4113 95 68.0312 95C68.0312 92.69 68.0312 90.38 68.0312 88C70.3412 88 72.6512 88 75.0312 88C75.0312 85.69 75.0312 83.38 75.0312 81C77.3412 81 79.6512 81 82.0312 81C82.0312 79.02 82.0312 77.04 82.0312 75C80.3813 75 78.7313 75 77.0312 75C77.6913 74.01 78.3512 73.02 79.0312 72Z" fill="#AD6C2B"/>
<path d="M68.0312 125C70.3412 125 72.6512 125 75.0312 125C75.0312 127.97 75.0312 130.94 75.0312 134C93.1812 134 111.331 134 130.031 134C130.031 136.31 130.031 138.62 130.031 141C132.011 141 133.991 141 136.031 141C136.031 145.95 136.031 150.9 136.031 156C131.411 156 126.791 156 122.031 156C122.031 151.05 122.031 146.1 122.031 141C117.081 141 112.131 141 107.031 141C107.031 143.64 107.031 146.28 107.031 149C105.381 149 103.731 149 102.031 149C102.031 151.31 102.031 153.62 102.031 156C100.711 156 99.3913 156 98.0312 156C98.0312 151.05 98.0312 146.1 98.0312 141C90.4412 141 82.8513 141 75.0312 141C75.0312 145.95 75.0312 150.9 75.0312 156C72.7213 156 70.4113 156 68.0312 156C68.0312 145.77 68.0312 135.54 68.0312 125Z" fill="#4A2B0E"/>
<path d="M36.0312 88C40.9812 88 45.9313 88 51.0312 88C51.0312 90.31 51.0312 92.62 51.0312 95C48.7213 95 46.4113 95 44.0312 95C44.0312 97.64 44.0312 100.28 44.0312 103C37.1013 103 30.1712 103 23.0312 103C23.0312 105.64 23.0312 108.28 23.0312 111C25.0113 111 26.9913 111 29.0312 111C29.0312 113.31 29.0312 115.62 29.0312 118C31.6713 118 34.3112 118 37.0312 118C37.0312 130.54 37.0312 143.08 37.0312 156C32.0813 156 27.1312 156 22.0312 156C22.0312 135.87 22.0312 115.74 22.0312 95C26.6512 95 31.2712 95 36.0312 95C36.0312 92.69 36.0312 90.38 36.0312 88Z" fill="#C79856"/>
<path d="M28.0312 64C35.9513 64 43.8713 64 52.0312 64C52.5263 67.96 52.5263 67.96 53.0312 72C55.0113 72.33 56.9913 72.66 59.0312 73C59.0312 77.62 59.0312 82.24 59.0312 87C44.8413 87 30.6512 87 16.0312 87C16.0312 85.02 16.0312 83.04 16.0312 81C18.0113 81 19.9913 81 22.0312 81C22.0312 78.36 22.0312 75.72 22.0312 73C24.0113 73 25.9913 73 28.0312 73C28.0312 70.03 28.0312 67.06 28.0312 64Z" fill="#DFAF74"/>
<path d="M180.031 76C182.341 76 184.651 76 187.031 76C187.031 80.29 187.031 84.58 187.031 89C185.051 89 183.071 89 181.031 89C181.031 91.31 181.031 93.62 181.031 96C178.721 96 176.411 96 174.031 96C174.031 98.31 174.031 100.62 174.031 103C172.051 103 170.071 103 168.031 103C168.031 105.31 168.031 107.62 168.031 110C164.401 110 160.771 110 157.031 110C157.031 123.2 157.031 136.4 157.031 150C156.371 150 155.711 150 155.031 150C154.701 151.65 154.371 153.3 154.031 155C153.041 155 152.051 155 151.031 155C151.031 137.84 151.031 120.68 151.031 103C155.981 103 160.931 103 166.031 103C166.031 101.02 166.031 99.04 166.031 97C168.341 97 170.651 97 173.031 97C173.031 94.03 173.031 91.06 173.031 88C175.341 88 177.651 88 180.031 88C180.031 84.04 180.031 80.08 180.031 76Z" fill="#523113"/>
<path d="M59.0312 118C61.6713 118 64.3112 118 67.0312 118C67.0312 130.54 67.0312 143.08 67.0312 156C61.7512 156 56.4713 156 51.0312 156C51.0312 145.77 51.0312 135.54 51.0312 125C53.6713 125 56.3112 125 59.0312 125C59.0312 122.69 59.0312 120.38 59.0312 118Z" fill="#D29345"/>
<path d="M16.0312 88C22.6312 88 29.2312 88 36.0312 88C36.0312 90.31 36.0312 92.62 36.0312 95C31.4113 95 26.7913 95 22.0312 95C22.0312 113.15 22.0312 131.3 22.0312 150C21.0412 150 20.0512 150 19.0312 150C19.0312 151.65 19.0312 153.3 19.0312 155C18.0412 155 17.0512 155 16.0312 155C16.0312 132.89 16.0312 110.78 16.0312 88Z" fill="#4C2B0D"/>
<path d="M166.031 72C168.341 72 170.651 72 173.031 72C173.031 74.64 173.031 77.28 173.031 80C175.011 80 176.991 80 179.031 80C179.361 82.64 179.691 85.28 180.031 88C177.721 88 175.411 88 173.031 88C173.031 90.97 173.031 93.94 173.031 97C170.721 97 168.411 97 166.031 97C166.031 98.98 166.031 100.96 166.031 103C161.081 103 156.131 103 151.031 103C151.031 98.38 151.031 93.76 151.031 89C155.651 88.67 160.271 88.34 165.031 88C165.361 82.72 165.691 77.44 166.031 72Z" fill="#B87633"/>
<path d="M107.031 81C118.911 81 130.791 81 143.031 81C143.031 82.98 143.031 84.96 143.031 87C142.371 87 141.711 87 141.031 87C140.701 89.97 140.371 92.94 140.031 96C139.041 96 138.051 96 137.031 96C137.052 96.9694 137.072 97.9388 137.094 98.9375C137.031 102 137.031 102 136.031 103C133.698 103.041 131.364 103.042 129.031 103C128.989 100.667 128.99 98.333 129.031 96C129.361 95.67 129.691 95.34 130.031 95C130.104 92.8136 130.115 90.625 130.094 88.4375C130.085 87.24 130.076 86.0424 130.066 84.8086C130.055 83.8818 130.043 82.9549 130.031 82C127.721 82 125.411 82 123.031 82C123.031 88.93 123.031 95.86 123.031 103C120.061 103 117.091 103 114.031 103C114.031 96.07 114.031 89.14 114.031 82C111.721 82 109.411 82 107.031 82C107.031 81.67 107.031 81.34 107.031 81Z" fill="#B2722D"/>
<path d="M83.0312 74C102.831 74 122.631 74 143.031 74C143.031 76.31 143.031 78.62 143.031 81C123.231 81 103.431 81 83.0312 81C83.0312 78.69 83.0312 76.38 83.0312 74Z" fill="#4E2B0C"/>
<path d="M37.0312 125C41.6512 125 46.2712 125 51.0312 125C51.0312 135.23 51.0312 145.46 51.0312 156C49.0512 156 47.0712 156 45.0312 156C45.0312 154.02 45.0312 152.04 45.0312 150C44.3712 150 43.7113 150 43.0312 150C43.0312 151.65 43.0312 153.3 43.0312 155C41.0512 155 39.0712 155 37.0312 155C37.0312 145.1 37.0312 135.2 37.0312 125Z" fill="#4E2D0F"/>
<path d="M23.0312 125C27.3212 125 31.6112 125 36.0312 125C36.0312 133.25 36.0312 141.5 36.0312 150C34.3813 150 32.7313 150 31.0312 150C30.7012 151.65 30.3713 153.3 30.0312 155C27.7213 155 25.4113 155 23.0312 155C23.0312 145.1 23.0312 135.2 23.0312 125Z" fill="#D09143"/>
<path d="M76.0312 125C88.5712 125 101.111 125 114.031 125C114.031 127.64 114.031 130.28 114.031 133C101.161 133 88.2913 133 75.0312 133C75.3613 130.36 75.6912 127.72 76.0312 125Z" fill="#DCB276"/>
<path d="M152.03 106C152.443 106.516 152.855 107.031 153.28 107.562C154.147 108.274 154.147 108.274 155.03 109C157.193 108.772 157.193 108.772 159.03 108C159.36 108.66 159.69 109.32 160.03 110C159.04 110 158.05 110 157.03 110C157.03 123.2 157.03 136.4 157.03 150C156.37 150 155.71 150 155.03 150C154.7 151.65 154.37 153.3 154.03 155C153.04 155 152.05 155 151.03 155C151.005 148.665 150.988 142.329 150.975 135.994C150.97 133.838 150.964 131.683 150.955 129.528C150.943 126.43 150.937 123.332 150.933 120.234C150.928 119.271 150.922 118.307 150.917 117.314C150.917 116.414 150.917 115.513 150.917 114.585C150.915 113.794 150.912 113.004 150.91 112.189C151.03 110.005 151.427 108.098 152.03 106Z" fill="#4A280B"/>
<path d="M158.031 72C160.671 72 163.311 72 166.031 72C165.701 77.28 165.371 82.56 165.031 88C160.007 88.8373 156.031 89.0862 151.031 89C151.031 91.31 151.031 93.62 151.031 96C149.051 96 147.071 96 145.031 96C145.031 93.03 145.031 90.06 145.031 87C144.371 87 143.711 87 143.031 87C143.031 85.02 143.031 83.04 143.031 81C145.341 81 147.651 81 150.031 81C150.031 81.66 150.031 82.32 150.031 83C152.671 83 155.311 83 158.031 83C158.031 79.37 158.031 75.74 158.031 72Z" fill="#522F0F"/>
<path d="M22.0312 111C24.3412 111 26.6512 111 29.0312 111C29.0312 113.31 29.0312 115.62 29.0312 118C31.6713 118 34.3112 118 37.0312 118C37.0312 130.54 37.0312 143.08 37.0312 156C32.0813 156 27.1312 156 22.0312 156C22.0312 141.15 22.0312 126.3 22.0312 111ZM23.0312 125C23.0312 134.9 23.0312 144.8 23.0312 155C25.3412 155 27.6512 155 30.0312 155C30.3613 153.35 30.6912 151.7 31.0312 150C32.6812 150 34.3312 150 36.0312 150C36.0312 141.75 36.0312 133.5 36.0312 125C31.7413 125 27.4513 125 23.0312 125Z" fill="#B47C3C"/>
<path d="M59.0312 73C60.6812 73 62.3312 73 64.0312 73C62.7112 73.33 61.3913 73.66 60.0312 74C60.0312 75.98 60.0312 77.96 60.0312 80C62.3412 80 64.6512 80 67.0312 80C67.0312 84.95 67.0312 89.9 67.0312 95C69.6713 95 72.3112 95 75.0312 95C75.0312 95.33 75.0312 95.66 75.0312 96C64.8013 96 54.5712 96 44.0312 96C44.0312 95.67 44.0312 95.34 44.0312 95C46.3412 95 48.6512 95 51.0312 95C51.0312 92.69 51.0312 90.38 51.0312 88C46.0813 88 41.1312 88 36.0312 88C36.0312 87.67 36.0312 87.34 36.0312 87C43.6213 87 51.2112 87 59.0312 87C59.0312 82.38 59.0312 77.76 59.0312 73Z" fill="#C69554"/>
<path d="M107.031 141C111.981 141 116.931 141 122.031 141C122.031 145.95 122.031 150.9 122.031 156C116.751 156 111.471 156 106.031 156C106.361 151.05 106.691 146.1 107.031 141Z" fill="#BA8743"/>
<path d="M79.0312 72C81.7014 71.6772 81.7014 71.6772 85.1333 71.7512C86.4145 71.7715 87.6957 71.7917 89.0157 71.8126C90.4193 71.85 91.8229 71.8877 93.2266 71.9258C94.6586 71.9538 96.0906 71.9805 97.5227 72.0059C101.294 72.0764 105.065 72.1651 108.837 72.2576C112.684 72.3487 116.531 72.4227 120.379 72.4981C127.93 72.6486 135.481 72.8183 143.031 73C143.031 73.33 143.031 73.66 143.031 74C123.231 74 103.431 74 83.0312 74C83.0312 76.31 83.0312 78.62 83.0312 81C90.9513 81 98.8713 81 107.031 81C107.031 81.33 107.031 81.66 107.031 82C101.421 82 95.8113 82 90.0312 82C90.0312 83.98 90.0312 85.96 90.0312 88C85.0813 88 80.1312 88 75.0312 88C75.0312 85.69 75.0312 83.38 75.0312 81C77.3412 81 79.6512 81 82.0312 81C82.0312 79.02 82.0312 77.04 82.0312 75C80.3813 75 78.7313 75 77.0312 75C77.6913 74.01 78.3512 73.02 79.0312 72Z" fill="#8C5C2D"/>
<path d="M51.0312 145C56.3113 145 61.5912 145 67.0312 145C67.0312 148.63 67.0312 152.26 67.0312 156C61.7512 156 56.4713 156 51.0312 156C51.0312 152.37 51.0312 148.74 51.0312 145Z" fill="#C59C61"/>
<path d="M114.031 118C116.341 118 118.651 118 121.031 118C121.88 123.376 122.034 127.654 121.031 133C124.001 133 126.971 133 130.031 133C130.031 133.33 130.031 133.66 130.031 134C111.881 134 93.7313 134 75.0312 134C75.0312 133.67 75.0312 133.34 75.0312 133C87.9012 133 100.771 133 114.031 133C114.031 128.05 114.031 123.1 114.031 118Z" fill="#B9925B"/>
<path d="M121.031 83C121.361 83 121.691 83 122.031 83C122.031 89.6 122.031 96.2 122.031 103C119.721 103 117.411 103 115.031 103C115.031 96.73 115.031 90.46 115.031 84C116.681 84 118.331 84 120.031 84C120.361 83.67 120.691 83.34 121.031 83Z" fill="#AA6827"/>
<path d="M36.0312 88C40.9812 88 45.9313 88 51.0312 88C51.0312 90.31 51.0312 92.62 51.0312 95C44.8636 96.0986 38.8471 96.1154 32.5938 96.0625C31.576 96.058 30.5583 96.0535 29.5098 96.0488C27.0169 96.0371 24.5241 96.0207 22.0312 96C22.0312 95.67 22.0312 95.34 22.0312 95C26.6512 95 31.2712 95 36.0312 95C36.0312 92.69 36.0312 90.38 36.0312 88Z" fill="#AF8147"/>
<path d="M166.031 72C168.341 72 170.651 72 173.031 72C173.031 74.64 173.031 77.28 173.031 80C175.011 80 176.991 80 179.031 80C179.361 82.64 179.691 85.28 180.031 88C178.051 88 176.071 88 174.031 88C173.701 87.01 173.371 86.02 173.031 85C171.711 85 170.391 85 169.031 85C169.031 84.34 169.031 83.68 169.031 83C168.041 83.33 167.051 83.66 166.031 84C166.031 80.04 166.031 76.08 166.031 72Z" fill="#C88339"/>
<path d="M143.031 110C145.671 110 148.311 110 151.031 110C151.031 124.85 151.031 139.7 151.031 155C152.021 155 153.011 155 154.031 155C154.361 154.01 154.691 153.02 155.031 152C155.031 153.32 155.031 154.64 155.031 156C153.381 156 151.731 156 150.031 156C150.031 143.46 150.031 130.92 150.031 118C147.721 118 145.411 118 143.031 118C143.031 115.36 143.031 112.72 143.031 110Z" fill="#9E672E"/>
<path d="M151.031 89C153.671 89 156.311 89 159.031 89C159.031 90.98 159.031 92.96 159.031 95C156.721 95.33 154.411 95.66 152.031 96C152.031 96.66 152.031 97.32 152.031 98C152.691 98 153.351 98 154.031 98C153.701 99.32 153.371 100.64 153.031 102C156.661 102 160.291 102 164.031 102C164.031 101.34 164.031 100.68 164.031 100C163.371 99.67 162.711 99.34 162.031 99C163.681 97.02 165.331 95.04 167.031 93C167.361 93.99 167.691 94.98 168.031 96C169.681 96 171.331 96 173.031 96C173.031 96.33 173.031 96.66 173.031 97C170.721 97 168.411 97 166.031 97C166.031 98.98 166.031 100.96 166.031 103C161.081 103 156.131 103 151.031 103C151.031 98.38 151.031 93.76 151.031 89Z" fill="#AD6C2B"/>
<path d="M165.031 80C165.691 80.99 166.351 81.98 167.031 83C170.599 83.7361 170.599 83.7361 174.031 84C174.361 84.99 174.691 85.98 175.031 87C174.701 87.33 174.371 87.66 174.031 88C173.8 89.3475 173.62 90.7038 173.469 92.0625C173.324 93.3619 173.18 94.6612 173.031 96C170.656 96.125 170.656 96.125 168.031 96C166.031 94 166.031 94 165.906 91.375C165.948 90.5913 165.989 89.8075 166.031 89C163.721 89 161.411 89 159.031 89C159.031 88.67 159.031 88.34 159.031 88C161.011 88 162.991 88 165.031 88C165.031 85.36 165.031 82.72 165.031 80Z" fill="#BE7A33"/>
<path d="M23.0312 145C27.3212 145 31.6112 145 36.0312 145C36.0312 146.65 36.0312 148.3 36.0312 150C34.3813 150 32.7313 150 31.0312 150C30.7012 151.65 30.3713 153.3 30.0312 155C27.7213 155 25.4113 155 23.0312 155C23.0312 151.7 23.0312 148.4 23.0312 145Z" fill="#D7A966"/>
<path d="M59.0312 73C60.6812 73 62.3312 73 64.0312 73C62.7112 73.33 61.3913 73.66 60.0312 74C60.0312 75.98 60.0312 77.96 60.0312 80C62.3412 80 64.6512 80 67.0312 80C67.0312 82.64 67.0312 85.28 67.0312 88C56.8013 88 46.5712 88 36.0312 88C36.0312 87.67 36.0312 87.34 36.0312 87C43.6213 87 51.2112 87 59.0312 87C59.0312 82.38 59.0312 77.76 59.0312 73Z" fill="#D6A15A"/>
<path d="M149.031 118C149.361 118 149.691 118 150.031 118C150.031 130.54 150.031 143.08 150.031 156C149.701 156 149.371 156 149.031 156C149.031 154.02 149.031 152.04 149.031 150C145.071 150 141.111 150 137.031 150C137.031 148.35 137.031 146.7 137.031 145C140.991 145 144.951 145 149.031 145C149.031 136.09 149.031 127.18 149.031 118Z" fill="#D5A056"/>
<path d="M136.031 141C136.361 141 136.691 141 137.031 141C137.031 143.97 137.031 146.94 137.031 150C138.052 149.722 138.052 149.722 139.094 149.438C142.604 148.915 145.553 149.386 149.031 150C149.031 151.98 149.031 153.96 149.031 156C144.741 156 140.451 156 136.031 156C136.031 151.05 136.031 146.1 136.031 141Z" fill="#BD8F50"/>
<path d="M51.0312 145C56.3113 145 61.5912 145 67.0312 145C67.0312 146.98 67.0312 148.96 67.0312 151C62.0813 150.67 57.1312 150.34 52.0312 150C52.0312 151.65 52.0312 153.3 52.0312 155C51.7012 155 51.3713 155 51.0312 155C51.0312 151.7 51.0312 148.4 51.0312 145Z" fill="#DBAD6B"/>
<path d="M67.0312 118C69.6713 118 72.3112 118 75.0312 118C75.0312 120.31 75.0312 122.62 75.0312 125C72.7213 125 70.4113 125 68.0312 125C68.0312 135.23 68.0312 145.46 68.0312 156C67.7012 156 67.3713 156 67.0312 156C67.0312 143.46 67.0312 130.92 67.0312 118Z" fill="#A36F31"/>
<path d="M180.031 76C182.341 76 184.651 76 187.031 76C187.031 79.96 187.031 83.92 187.031 88C184.721 88 182.411 88 180.031 88C180.031 84.04 180.031 80.08 180.031 76Z" fill="#4A2609"/>
<path d="M76.0312 125C88.5712 125 101.111 125 114.031 125C114.031 125.33 114.031 125.66 114.031 126C98.1912 126.495 98.1912 126.495 82.0312 127C81.7012 128.65 81.3713 130.3 81.0312 132C79.0512 132.33 77.0712 132.66 75.0312 133C75.3613 130.36 75.6912 127.72 76.0312 125Z" fill="#D6A868"/>
<path d="M7.03125 76C9.67125 76 12.3112 76 15.0312 76C15.0312 78.97 15.0312 81.94 15.0312 85C12.3912 85 9.75125 85 7.03125 85C7.03125 82.03 7.03125 79.06 7.03125 76Z" fill="#48260A"/>
<path d="M125.594 124.938C126.728 124.958 127.863 124.979 129.031 125C129.031 127.64 129.031 130.28 129.031 133C126.391 133 123.751 133 121.031 133C120.989 130.667 120.99 128.333 121.031 126C122.031 125 122.031 125 125.594 124.938Z" fill="#D6AD71"/>
<path d="M36.0312 145C36.3613 145 36.6912 145 37.0312 145C37.0312 148.63 37.0312 152.26 37.0312 156C32.0813 156 27.1312 156 22.0312 156C22.0312 154.02 22.0312 152.04 22.0312 150C22.3613 150 22.6912 150 23.0312 150C23.0312 151.65 23.0312 153.3 23.0312 155C25.3412 155 27.6512 155 30.0312 155C30.0312 153.35 30.0312 151.7 30.0312 150C33.0312 149 33.0312 149 36.0312 150C36.0312 148.35 36.0312 146.7 36.0312 145Z" fill="#BC945B"/>
<path d="M133.156 147.875C134.105 147.916 135.054 147.957 136.031 148C136.031 150.64 136.031 153.28 136.031 156C131.741 156 127.451 156 123.031 156C123.031 155.67 123.031 155.34 123.031 155C124.681 155 126.331 155 128.031 155C127.99 154.216 127.949 153.433 127.906 152.625C128.098 148.592 129.213 148.033 133.156 147.875Z" fill="#5B3B1B"/>
<path d="M74.0313 141C74.3613 141 74.6913 141 75.0313 141C75.0313 145.95 75.0313 150.9 75.0313 156C73.0513 156 71.0713 156 69.0313 156C69.3613 155.34 69.6913 154.68 70.0313 154C69.7013 153.34 69.3713 152.68 69.0313 152C68.9911 149.667 68.9881 147.333 69.0313 145C69.9904 144.845 69.9904 144.845 70.9688 144.688C71.6494 144.461 72.33 144.234 73.0313 144C73.3613 143.01 73.6913 142.02 74.0313 141Z" fill="#5A3C1E"/>
<path d="M159.031 89C161.341 89 163.651 89 166.031 89C166.281 91.75 166.281 91.75 166.031 95C164.031 97.375 164.031 97.375 162.031 99C161.701 97.68 161.371 96.36 161.031 95C160.371 95 159.711 95 159.031 95C159.031 93.02 159.031 91.04 159.031 89Z" fill="#C78339"/>
<path d="M22.0312 96C24.3412 96.66 26.6512 97.32 29.0312 98C29.0312 99.65 29.0312 101.3 29.0312 103C27.0512 103 25.0712 103 23.0312 103C23.0312 105.64 23.0312 108.28 23.0312 111C22.7012 111 22.3713 111 22.0312 111C22.0312 106.05 22.0312 101.1 22.0312 96Z" fill="#BC8E4F"/>
<path d="M136.031 118C138.341 118 140.651 118 143.031 118C143.031 120.31 143.031 122.62 143.031 125C140.721 125 138.411 125 136.031 125C136.031 122.69 136.031 120.38 136.031 118Z" fill="#B06D29"/>
<path d="M114.031 118C116.341 118 118.651 118 121.031 118C121.031 120.31 121.031 122.62 121.031 125C118.721 125 116.411 125 114.031 125C114.031 122.69 114.031 120.38 114.031 118Z" fill="#B27331"/>
<path d="M23.0312 103C25.0113 103 26.9913 103 29.0312 103C29.0312 105.64 29.0312 108.28 29.0312 111C27.0512 111 25.0712 111 23.0312 111C23.0312 108.36 23.0312 105.72 23.0312 103Z" fill="#D9AB6B"/>
<path d="M91.0312 82C93.6713 82 96.3112 82 99.0312 82C99.0312 83.98 99.0312 85.96 99.0312 88C96.3912 88 93.7513 88 91.0312 88C91.0312 86.02 91.0312 84.04 91.0312 82Z" fill="#BF7E38"/>
<path d="M159.031 72C161.011 72 162.991 72 165.031 72C165.031 74.31 165.031 76.62 165.031 79C164.041 79.33 163.051 79.66 162.031 80C161.701 79.34 161.371 78.68 161.031 78C160.701 79.98 160.371 81.96 160.031 84C159.701 84 159.371 84 159.031 84C159.031 80.04 159.031 76.08 159.031 72Z" fill="#48280B"/>
<path d="M45.0312 118C47.0113 118 48.9913 118 51.0312 118C51.0312 120.31 51.0312 122.62 51.0312 125C49.0512 125 47.0712 125 45.0312 125C45.0312 122.69 45.0312 120.38 45.0312 118Z" fill="#BE9153"/>
<path d="M23.0312 111C25.0113 111 26.9913 111 29.0312 111C29.0312 113.31 29.0312 115.62 29.0312 118C27.0512 118 25.0712 118 23.0312 118C23.0312 115.69 23.0312 113.38 23.0312 111Z" fill="#C5904B"/>
<path d="M174.031 89C176.011 89 177.991 89 180.031 89C180.031 91.31 180.031 93.62 180.031 96C178.051 96 176.071 96 174.031 96C174.031 93.69 174.031 91.38 174.031 89Z" fill="#4D270A"/>
<path d="M75.0312 89C77.3412 89 79.6512 89 82.0312 89C82.0312 90.98 82.0312 92.96 82.0312 95C80.0317 95.0425 78.0308 95.0408 76.0312 95C75.0312 94 75.0312 94 74.9688 91.4375C74.9894 90.6331 75.01 89.8288 75.0312 89Z" fill="#C9863D"/>
<path d="M158.031 72C158.361 72 158.691 72 159.031 72C159.092 72.8314 159.152 73.6629 159.215 74.5195C159.299 75.6062 159.382 76.6929 159.469 77.8125C159.591 79.4309 159.591 79.4309 159.715 81.082C159.933 84.0599 159.933 84.0599 161.031 87C160.371 87 159.711 87 159.031 87C158.701 86.34 158.371 85.68 158.031 85C156.136 84.5348 156.136 84.5348 153.969 84.375C152.669 84.2512 151.37 84.1275 150.031 84C150.031 83.67 150.031 83.34 150.031 83C152.671 83 155.311 83 158.031 83C158.031 79.37 158.031 75.74 158.031 72ZM160.031 76C162.17 78.1385 162.458 79.1328 163.031 82C161.546 82.99 161.546 82.99 160.031 84C160.031 81.36 160.031 78.72 160.031 76Z" fill="#5E4122"/>
<path d="M139.03 87C139.69 87 140.35 87 141.03 87C140.7 89.97 140.37 92.94 140.03 96C139.04 96 138.05 96 137.03 96C137.03 97.98 137.03 99.96 137.03 102C136.7 102 136.37 102 136.03 102C135.656 92.4683 135.656 92.4683 138.03 88C138.36 87.67 138.69 87.34 139.03 87Z" fill="#BC7A33"/>
<path d="M76.0312 72C77.0213 72.33 78.0113 72.66 79.0312 73C78.7012 73.33 78.3713 73.66 78.0312 74C79.3513 74.33 80.6712 74.66 82.0312 75C82.0312 76.98 82.0312 78.96 82.0312 81C80.3813 81 78.7313 81 77.0312 81C76.7012 78.03 76.3713 75.06 76.0312 72Z" fill="#C8853A"/>
<path d="M131.031 81C134.991 81 138.951 81 143.031 81C143.031 82.98 143.031 84.96 143.031 87C142.041 87 141.051 87 140.031 87C139.598 86.3606 139.165 85.7212 138.719 85.0625C137.118 82.6793 137.118 82.6793 133.844 82.25C132.916 82.1675 131.988 82.085 131.031 82C131.031 81.67 131.031 81.34 131.031 81Z" fill="#A46827"/>
<path d="M8.03125 73C10.6713 73 13.3112 73 16.0312 73C16.9655 76.0103 17.0757 76.8665 16.0312 80C17.3513 80.33 18.6712 80.66 20.0312 81C18.7112 81 17.3913 81 16.0312 81C16.0312 82.98 16.0312 84.96 16.0312 87C15.7012 87 15.3713 87 15.0312 87C15.0312 83.04 15.0312 79.08 15.0312 75C12.7213 75 10.4113 75 8.03125 75C8.03125 74.34 8.03125 73.68 8.03125 73Z" fill="#CE9653"/>
<path d="M165.031 80C165.361 81.32 165.691 82.64 166.031 84C166.691 84 167.351 84 168.031 84C168.691 85.65 169.351 87.3 170.031 89C169.371 89 168.711 89 168.031 89C167.701 89.99 167.371 90.98 167.031 92C167.031 91.01 167.031 90.02 167.031 89C164.391 89 161.751 89 159.031 89C159.031 88.67 159.031 88.34 159.031 88C161.011 88 162.991 88 165.031 88C165.031 85.36 165.031 82.72 165.031 80Z" fill="#A46729"/>
<path d="M70.0301 82C71.3501 82.66 72.6701 83.32 74.0301 84C73.3701 84.66 72.7101 85.32 72.0301 86C72.6901 86.66 73.3501 87.32 74.0301 88C72.0501 88 70.0701 88 68.0301 88C68.0301 90.31 68.0301 92.62 68.0301 95C67.7001 95 67.3701 95 67.0301 95C66.7558 89.6055 66.6696 86.4807 70.0301 82Z" fill="#C68941"/>
<path d="M102.031 149C103.351 149 104.671 149 106.031 149C106.031 151.31 106.031 153.62 106.031 156C104.711 156 103.391 156 102.031 156C102.031 153.69 102.031 151.38 102.031 149Z" fill="#966633"/>
<path d="M17.0312 74C18.3513 74 19.6712 74 21.0312 74C21.0312 76.31 21.0312 78.62 21.0312 81C19.3813 80.67 17.7313 80.34 16.0312 80C16.3613 78.02 16.6912 76.04 17.0312 74Z" fill="#CD8B41"/>
<path d="M151.031 89C153.671 89 156.311 89 159.031 89C159.031 90.98 159.031 92.96 159.031 95C158.041 94.67 157.051 94.34 156.031 94C156.361 93.34 156.691 92.68 157.031 92C154.556 91.01 154.556 91.01 152.031 90C152.031 91.65 152.031 93.3 152.031 95C151.701 95 151.371 95 151.031 95C151.031 93.02 151.031 91.04 151.031 89Z" fill="#9A5D22"/>
<path d="M152.031 90C153.969 90.3125 153.969 90.3125 156.031 91C156.361 91.99 156.691 92.98 157.031 94C156.701 94.66 156.371 95.32 156.031 96C153.469 96.625 153.469 96.625 151.031 97C151.361 94.69 151.691 92.38 152.031 90Z" fill="#A66627"/>
<path d="M180.031 76C182.341 76 184.651 76 187.031 76C187.031 79.63 187.031 83.26 187.031 87C186.701 87 186.371 87 186.031 87C186.031 85.02 186.031 83.04 186.031 81C185.371 81 184.711 81 184.031 81C183.371 80.01 182.711 79.02 182.031 78C181.371 77.34 180.711 76.68 180.031 76Z" fill="#573110"/>
<path d="M59.0312 152C60.6812 152 62.3312 152 64.0312 152C64.0312 152.66 64.0312 153.32 64.0312 154C64.6913 154 65.3512 154 66.0312 154C66.3613 153.34 66.6912 152.68 67.0312 152C67.0312 152.99 67.0312 153.98 67.0312 155C63.4012 155 59.7713 155 56.0312 155C56.3613 154.34 56.6912 153.68 57.0312 153C57.6913 153.33 58.3512 153.66 59.0312 154C59.0312 153.34 59.0312 152.68 59.0312 152Z" fill="#CEA466"/>
<path d="M136.031 149C136.031 151.31 136.031 153.62 136.031 156C133.556 155.01 133.556 155.01 131.031 154C132.698 149 132.698 149 136.031 149Z" fill="#523213"/>
<path d="M79.0312 72C80.6812 72.33 82.3312 72.66 84.0312 73C83.7012 75.64 83.3713 78.28 83.0312 81C82.7012 81 82.3713 81 82.0312 81C82.0312 79.02 82.0312 77.04 82.0312 75C80.3813 75 78.7313 75 77.0312 75C77.6913 74.01 78.3512 73.02 79.0312 72Z" fill="#AB6C2C"/>
<path d="M151.031 84C153.341 84 155.651 84 158.031 84C158.031 85.65 158.031 87.3 158.031 89C157.041 89 156.051 89 155.031 89C155.031 87.68 155.031 86.36 155.031 85C153.711 84.67 152.391 84.34 151.031 84Z" fill="#4C2806"/>
<path d="M174.031 96C176.341 96 178.651 96 181.031 96C179.711 96.33 178.391 96.66 177.031 97C176.701 98.32 176.371 99.64 176.031 101C175.371 101 174.711 101 174.031 101C174.031 99.35 174.031 97.7 174.031 96Z" fill="#847258"/>
<path d="M7.03232 5C12.3123 5 17.5923 5 23.0323 5C23.0323 5.99 23.0323 6.98 23.0323 8C24.0223 8 25.0123 8 26.0323 8C26.0323 10.97 26.0323 13.94 26.0323 17C27.3523 17 28.6723 17 30.0323 17C30.0323 19.97 30.0323 22.94 30.0323 26C38.9423 26 47.8523 26 57.0323 26C57.0323 22.7 57.0323 19.4 57.0323 16C59.0123 16 60.9923 16 63.0323 16C63.0323 13.36 63.0323 10.72 63.0323 8C67.1229 6.85002 71.0651 6.88944 75.2823 6.9375C79.1186 6.96844 79.1186 6.96844 83.0323 7C83.0323 15.91 83.0323 24.82 83.0323 34C85.3423 34 87.6523 34 90.0323 34C90.0323 46.87 90.0323 59.74 90.0323 73C86.4023 73 82.7723 73 79.0323 73C78.7023 73.33 78.3723 73.66 78.0323 74C80.0123 74.495 80.0123 74.495 82.0323 75C82.0323 76.98 82.0323 78.96 82.0323 81C79.7223 81 77.4123 81 75.0323 81C75.0323 83.31 75.0323 85.62 75.0323 88C72.7223 88 70.4123 88 68.0323 88C68.0323 90.31 68.0323 92.62 68.0323 95C67.7023 95 67.3723 95 67.0323 95C67.0323 90.05 67.0323 85.1 67.0323 80C64.7223 80 62.4123 80 60.0323 80C60.0323 78.02 60.0323 76.04 60.0323 74C58.8979 73.8556 57.7636 73.7113 56.5948 73.5625C53.0323 73 53.0323 73 52.0323 72C52.0323 69.36 52.0323 66.72 52.0323 64C44.1123 64 36.1923 64 28.0323 64C28.0323 66.97 28.0323 69.94 28.0323 73C26.0523 73 24.0723 73 22.0323 73C22.0323 75.64 22.0323 78.28 22.0323 81C20.0523 81 18.0723 81 16.0323 81C16.0323 82.98 16.0323 84.96 16.0323 87C15.7023 87 15.3723 87 15.0323 87C15.0323 83.37 15.0323 79.74 15.0323 76C12.3923 76 9.75232 76 7.03232 76C5.90736 72.4192 5.94736 69.1329 6.01059 65.3955C6.0202 64.7414 6.0298 64.0874 6.0397 63.4135C6.07258 61.2599 6.11296 59.1066 6.15341 56.9531C6.17772 55.4567 6.20157 53.9603 6.22496 52.4638C6.28769 48.5313 6.35679 44.599 6.42722 40.6667C6.498 36.6516 6.56275 32.6363 6.62802 28.6211C6.75689 20.7473 6.89305 12.8736 7.03232 5Z" fill="#D18F40"/>
<path d="M8.03125 0C13.6413 0 19.2512 0 25.0312 0C25.0312 1.65 25.0312 3.3 25.0312 5C25.6913 5 26.3512 5 27.0312 5C27.0312 5.99 27.0312 6.98 27.0312 8C28.6812 8 30.3312 8 32.0312 8C32.0312 9.32 32.0312 10.64 32.0312 12C33.6812 12 35.3312 12 37.0312 12C37.0312 14.64 37.0312 17.28 37.0312 20C42.3113 20 47.5912 20 53.0312 20C53.0312 18.68 53.0312 17.36 53.0312 16C53.6913 15.67 54.3512 15.34 55.0312 15C55.6319 13.0982 55.6319 13.0982 56.0312 11C56.3613 10.01 56.6912 9.02 57.0312 8C57.8356 7.87625 58.64 7.7525 59.4688 7.625C60.3144 7.41875 61.16 7.2125 62.0312 7C62.3613 6.34 62.6912 5.68 63.0312 5C63.6913 5 64.3512 5 65.0312 5C65.0312 3.35 65.0312 1.7 65.0312 0C70.9713 0 76.9113 0 83.0312 0C83.0312 2.31 83.0312 4.62 83.0312 7C73.1313 7.495 73.1313 7.495 63.0312 8C63.0312 10.64 63.0312 13.28 63.0312 16C61.0512 16 59.0712 16 57.0312 16C57.0312 19.3 57.0312 22.6 57.0312 26C48.1213 26 39.2113 26 30.0312 26C30.0312 23.03 30.0312 20.06 30.0312 17C28.7112 17 27.3913 17 26.0312 17C26.0312 14.03 26.0312 11.06 26.0312 8C25.0412 8 24.0512 8 23.0312 8C23.0312 7.01 23.0312 6.02 23.0312 5C17.7512 5 12.4713 5 7.03125 5C7.36125 3.35 7.69125 1.7 8.03125 0Z" fill="#553211"/>
<path d="M83.0312 7C85.6713 7.33 88.3112 7.66 91.0312 8C91.0312 16.25 91.0312 24.5 91.0312 33C93.0113 33 94.9913 33 97.0312 33C98.0312 34 98.0312 34 98.1448 37.6018C98.1446 39.2046 98.1389 40.8074 98.1289 42.4102C98.1275 43.2522 98.1261 44.0942 98.1246 44.9618C98.119 47.6621 98.1064 50.3622 98.0938 53.0625C98.0887 54.8887 98.0842 56.7148 98.0801 58.541C98.069 63.0274 98.0518 67.5137 98.0312 72C95.3912 72 92.7513 72 90.0312 72C90.0312 59.46 90.0312 46.92 90.0312 34C87.7213 34 85.4113 34 83.0312 34C83.0312 25.09 83.0312 16.18 83.0312 7Z" fill="#4F2E11"/>
<path d="M1.03209 8C3.01209 8 4.99209 8 7.03209 8C7.03209 29.45 7.03209 50.9 7.03209 73C4.72209 73 2.41209 73 0.0320923 73C-0.124471 51.31 0.305034 29.6764 1.03209 8Z" fill="#4E2C0E"/>
<path d="M70.0312 8C72.6713 8 75.3112 8 78.0312 8C78.1756 9.13437 78.32 10.2687 78.4688 11.4375C78.643 14.8078 78.643 14.8078 80.0312 16C80.1176 17.3427 80.1383 18.6897 80.1289 20.0352C80.1257 20.844 80.1225 21.6529 80.1191 22.4863C80.1108 23.3365 80.1024 24.1866 80.0938 25.0625C80.0892 25.9165 80.0847 26.7705 80.0801 27.6504C80.0683 29.767 80.0503 31.8835 80.0312 34C76.0712 34 72.1112 34 68.0312 34C68.0312 31.36 68.0312 28.72 68.0312 26C66.3813 26 64.7313 26 63.0312 26C63.0312 22.7 63.0312 19.4 63.0312 16C65.3412 16 67.6512 16 70.0312 16C70.0312 13.36 70.0312 10.72 70.0312 8Z" fill="#E3AD96"/>
<path d="M7.03125 9C10.0013 9 12.9713 9 16.0312 9C16.0312 11.31 16.0312 13.62 16.0312 16C18.0113 16 19.9913 16 22.0312 16C22.0312 19.3 22.0312 22.6 22.0312 26C19.7213 26 17.4113 26 15.0312 26C15.0312 28.64 15.0312 31.28 15.0312 34C12.3912 34 9.75125 34 7.03125 34C7.03125 25.75 7.03125 17.5 7.03125 9Z" fill="#DA9D6E"/>
<path d="M83.0312 7C85.6713 7.33 88.3112 7.66 91.0312 8C91.0312 16.25 91.0312 24.5 91.0312 33C93.0113 33 94.9913 33 97.0312 33C97.0312 33.33 97.0312 33.66 97.0312 34C95.0512 34 93.0712 34 91.0312 34C91.0312 46.54 91.0312 59.08 91.0312 72C90.7012 72 90.3713 72 90.0312 72C90.0312 59.46 90.0312 46.92 90.0312 34C87.7213 34 85.4113 34 83.0312 34C83.0312 25.09 83.0312 16.18 83.0312 7Z" fill="#522E0E"/>
<path d="M17.0312 52C20.6613 52 24.2912 52 28.0312 52C28.0312 58.93 28.0312 65.86 28.0312 73C24.4012 73 20.7713 73 17.0312 73C17.0312 66.07 17.0312 59.14 17.0312 52Z" fill="#2F2214"/>
<path d="M52.0312 52C55.6613 52 59.2912 52 63.0312 52C63.0312 58.6 63.0312 65.2 63.0312 72C59.4012 72 55.7713 72 52.0312 72C52.0312 65.4 52.0312 58.8 52.0312 52Z" fill="#231B13"/>
<path d="M17.031 58C17.031 62.95 17.031 67.9 17.031 73C18.681 73 20.331 73 22.031 73C22.031 75.64 22.031 78.28 22.031 81C20.051 81 18.071 81 16.031 81C16.031 82.98 16.031 84.96 16.031 87C15.701 87 15.371 87 15.031 87C15.031 83.37 15.031 79.74 15.031 76C12.391 76 9.75103 76 7.03103 76C5.49937 71.9156 6.40022 68.2054 7.03103 64C8.20666 63.8762 8.20666 63.8762 9.40603 63.75C12.1715 63.2847 12.1715 63.2847 13.2185 61C13.4867 60.34 13.7548 59.68 14.031 59C16.031 58 16.031 58 17.031 58Z" fill="#D29147"/>
<path d="M174.031 53C178.321 53 182.611 53 187.031 53C187.085 55.5836 187.125 58.1661 187.156 60.75C187.173 61.4796 187.19 62.2092 187.207 62.9609C187.242 66.8045 187.206 69.7461 185.031 73C184.371 72.67 183.711 72.34 183.031 72C183.031 71.34 183.031 70.68 183.031 70C182.371 70 181.711 70 181.031 70C180.701 68.02 180.371 66.04 180.031 64C178.051 64 176.071 64 174.031 64C174.031 60.37 174.031 56.74 174.031 53Z" fill="#D09044"/>
<path d="M75.2812 6.9375C77.8387 6.95813 80.3963 6.97875 83.0312 7C83.0312 15.91 83.0312 24.82 83.0312 34C82.0412 34 81.0512 34 80.0312 34C79.9707 32.7122 79.9101 31.4245 79.8477 30.0977C79.7633 28.4193 79.6786 26.7409 79.5938 25.0625C79.5544 24.2124 79.5151 23.3622 79.4746 22.4863C79.4327 21.6774 79.3908 20.8686 79.3477 20.0352C79.311 19.2863 79.2743 18.5374 79.2366 17.7659C79.2135 15.9754 79.2135 15.9754 78.0312 15C77.9903 12.667 77.9888 10.3329 78.0312 8C75.3912 8 72.7513 8 70.0312 8C70.0312 10.64 70.0312 13.28 70.0312 16C67.7213 16 65.4113 16 63.0312 16C63.0312 13.36 63.0312 10.72 63.0312 8C67.1218 6.85003 71.0641 6.88944 75.2812 6.9375Z" fill="#D89558"/>
<path d="M187.031 53C189.341 53 191.651 53 194.031 53C194.031 60.59 194.031 68.18 194.031 76C191.721 76 189.411 76 187.031 76C187.031 68.41 187.031 60.82 187.031 53Z" fill="#4D2A0F"/>
<path d="M29.0317 17C29.3617 17 29.6917 17 30.0317 17C30.0317 19.97 30.0317 22.94 30.0317 26C32.3417 26 34.6517 26 37.0317 26C36.7017 32.27 36.3717 38.54 36.0317 45C33.3917 45 30.7517 45 28.0317 45C27.8891 35.6064 28.3067 26.3593 29.0317 17Z" fill="#A56726"/>
<path d="M44.0312 26C46.6713 26 49.3112 26 52.0312 26C52.1417 32.7374 51.7326 39.2998 51.0312 46C48.7213 46 46.4113 46 44.0312 46C44.0312 39.4 44.0312 32.8 44.0312 26Z" fill="#A16325"/>
<path d="M7.03125 5C12.3113 5 17.5912 5 23.0312 5C23.0312 5.99 23.0312 6.98 23.0312 8C24.0213 8 25.0113 8 26.0312 8C26.0312 10.97 26.0312 13.94 26.0312 17C22.0945 18.3122 19.9064 17.243 16.0312 16C16.0312 13.69 16.0312 11.38 16.0312 9C13.0612 9 10.0912 9 7.03125 9C7.03125 7.68 7.03125 6.36 7.03125 5Z" fill="#C38039"/>
<path d="M166.031 53C168.341 53 170.651 53 173.031 53C173.031 58.94 173.031 64.88 173.031 71C170.721 71 168.411 71 166.031 71C166.031 65.06 166.031 59.12 166.031 53Z" fill="#4D2A0D"/>
<path d="M32.0312 13C33.3513 13 34.6712 13 36.0312 13C36.0312 15.31 36.0312 17.62 36.0312 20C34.3813 20 32.7313 20 31.0312 20C31.0312 21.65 31.0312 23.3 31.0312 25C36.9713 25 42.9113 25 49.0312 25C49.6913 23.35 50.3512 21.7 51.0312 20C51.6913 20 52.3512 20 53.0312 20C53.0312 19.01 53.0312 18.02 53.0312 17C54.0213 17 55.0113 17 56.0312 17C56.0312 19.97 56.0312 22.94 56.0312 26C47.4513 26 38.8713 26 30.0312 26C30.0312 15 30.0312 15 32.0312 13Z" fill="#4B280B"/>
<path d="M174.031 45C178.321 45 182.611 45 187.031 45C187.031 47.31 187.031 49.62 187.031 52C182.741 52 178.451 52 174.031 52C174.031 49.69 174.031 47.38 174.031 45Z" fill="#533012"/>
<path d="M82.0312 53C84.6713 53 87.3112 53 90.0312 53C90.0312 56.63 90.0312 60.26 90.0312 64C87.3912 64 84.7513 64 82.0312 64C82.0312 60.37 82.0312 56.74 82.0312 53Z" fill="#A86629"/>
<path d="M90.0312 8C90.3613 8 90.6912 8 91.0312 8C91.0312 16.25 91.0312 24.5 91.0312 33C93.0113 33 94.9913 33 97.0312 33C97.0312 33.33 97.0312 33.66 97.0312 34C95.0512 34 93.0712 34 91.0312 34C91.0312 46.54 91.0312 59.08 91.0312 72C90.7012 72 90.3713 72 90.0312 72C90.0312 59.46 90.0312 46.92 90.0312 34C87.7213 34 85.4113 34 83.0312 34C83.0312 33.67 83.0312 33.34 83.0312 33C85.3412 33 87.6512 33 90.0312 33C90.0312 24.75 90.0312 16.5 90.0312 8Z" fill="#684522"/>
<path d="M75.2812 6.93751C76.0263 6.94202 76.7714 6.94654 77.5391 6.95118C79.3698 6.96292 81.2005 6.98085 83.0312 7.00001C83.0312 7.33001 83.0312 7.66001 83.0312 8.00001C78.7413 8.00001 74.4513 8.00001 70.0312 8.00001C70.0312 10.64 70.0312 13.28 70.0312 16C67.7213 16 65.4113 16 63.0312 16C63.0312 13.36 63.0312 10.72 63.0312 8.00001C67.1213 6.85019 71.063 6.88907 75.2812 6.93751Z" fill="#C58A4C"/>
<path d="M32.0312 8C32.0312 9.32 32.0312 10.64 32.0312 12C33.6812 12 35.3312 12 37.0312 12C37.0312 14.64 37.0312 17.28 37.0312 20C40.9913 20 44.9513 20 49.0312 20C49.0312 20.33 49.0312 20.66 49.0312 21C44.7413 21 40.4513 21 36.0312 21C36.0312 18.36 36.0312 15.72 36.0312 13C32.3051 14.1185 32.3051 14.1185 30.0312 17C28.7112 16.67 27.3913 16.34 26.0312 16C26.2869 13.6569 26.624 11.3216 27.0312 9C29.0312 8 29.0312 8 32.0312 8Z" fill="#5C3918"/>
<path d="M83.0312 35C85.3412 35.33 87.6512 35.66 90.0312 36C90.0312 38.64 90.0312 41.28 90.0312 44C87.7213 44 85.4113 44 83.0312 44C83.0312 41.03 83.0312 38.06 83.0312 35Z" fill="#C68136"/>
<path d="M7.03125 53C8.68125 53 10.3312 53 12.0312 53C12.0312 56.63 12.0312 60.26 12.0312 64C10.3813 64 8.73125 64 7.03125 64C7.03125 60.37 7.03125 56.74 7.03125 53Z" fill="#B67330"/>
<path d="M76.0312 1C78.0113 1 79.9913 1 82.0312 1C82.3613 2.98 82.6912 4.96 83.0312 7C78.0813 7 73.1312 7 68.0312 7C68.0312 6.67 68.0312 6.34 68.0312 6C70.0113 6 71.9913 6 74.0312 6C74.0312 5.34 74.0312 4.68 74.0312 4C72.7112 3.67 71.3913 3.34 70.0312 3C72.0113 2.67 73.9913 2.34 76.0312 2C76.0312 1.67 76.0312 1.34 76.0312 1Z" fill="#4F2A0C"/>
<path d="M186.031 54C186.361 54 186.691 54 187.031 54C187.085 56.417 187.125 58.8327 187.156 61.25C187.181 62.2729 187.181 62.2729 187.207 63.3164C187.243 67.0608 187.111 69.8235 185.031 73C184.371 72.67 183.711 72.34 183.031 72C183.031 71.34 183.031 70.68 183.031 70C182.371 70 181.711 70 181.031 70C180.701 68.02 180.371 66.04 180.031 64C183.001 65.98 183.001 65.98 186.031 68C186.031 63.38 186.031 58.76 186.031 54Z" fill="#C7853E"/>
<path d="M8.03125 0C8.36125 0.66 8.69125 1.32 9.03125 2C12.3312 1.67 15.6312 1.34 19.0312 1C19.0312 1.99 19.0312 2.98 19.0312 4C13.0912 4.495 13.0912 4.495 7.03125 5C7.36125 3.35 7.69125 1.7 8.03125 0Z" fill="#5F3713"/>
<path d="M8.03125 6C11.3312 6 14.6312 6 18.0312 6C17.0412 7.485 17.0412 7.485 16.0312 9C13.8672 9.29297 13.8672 9.29297 11.4062 9.1875C10.589 9.16043 9.77172 9.13336 8.92969 9.10547C8.3032 9.07066 7.67672 9.03586 7.03125 9C7.36125 8.01 7.69125 7.02 8.03125 6Z" fill="#D19352"/>
<path d="M70.0312 10C70.0312 11.98 70.0312 13.96 70.0312 16C68.7112 16 67.3913 16 66.0312 16C65.7012 14.35 65.3713 12.7 65.0312 11C68.9062 10 68.9062 10 70.0312 10Z" fill="#CD8E45"/>
</svg>
